<svg width="15" height="15" viewBox="0 0 15 15" fill="none" xmlns="http://www.w3.org/2000/svg">
<path d="M3.24609 11.7539C4.44141 12.9258 5.85938 13.5117 7.5 13.5117C9.14062 13.5117 10.5469 12.9258 11.7188 11.7539C12.9141 10.5586 13.5117 9.14062 13.5117 7.5C13.5117 5.85937 12.9141 4.45312 11.7188 3.28125C10.5469 2.08594 9.14062 1.48828 7.5 1.48828C5.85938 1.48828 4.44141 2.08594 3.24609 3.28125C2.07422 4.45312 1.48828 5.85937 1.48828 7.5C1.48828 9.14062 2.07422 10.5586 3.24609 11.7539ZM2.19141 2.22656C3.66797 0.75 5.4375 0.0117188 7.5 0.0117188C9.5625 0.0117188 11.3203 0.75 12.7734 2.22656C14.25 3.67969 14.9883 5.4375 14.9883 7.5C14.9883 9.5625 14.25 11.332 12.7734 12.8086C11.3203 14.2617 9.5625 14.9883 7.5 14.9883C5.4375 14.9883 3.66797 14.2617 2.19141 12.8086C0.738281 11.332 0.0117188 9.5625 0.0117188 7.5C0.0117188 5.4375 0.738281 3.67969 2.19141 2.22656ZM8.23828 3.73828V6.76172H11.2617V8.23828H8.23828V11.2617H6.76172V8.23828H3.73828V6.76172H6.76172V3.73828H8.23828Z" fill="#0052FF"/>
</svg>
